<svg x="0px" y="0px" xmlns="http://www.w3.org/2000/svg" width="100%" height="100%" viewBox="0 0 569 440">
<defs>
  <radialGradient id="sun">
      <stop offset="0" stop-color="#f8ed34" />
      <stop offset="0.5" stop-color="#ea118d" />
      <stop offset="1" stop-color="#a00922" />
  </radialGradient>
  <radialGradient id="leftwing" fx="0.9" fy="0.7" gradientTransform="rotate(0 .5 .5)">

<stop offset="0.25" stop-color="rgba(249, 169, 19, 0.7)">
</stop>
<stop offset="1.5" stop-color="rgba(242, 6, 2, 0.5)">
<animate attributeName="offset" dur="12s" values="0.7;1.9;0.7"

  repeatCount="indefinite" />
</stop>
  </radialGradient>
  <radialGradient id="rightwing" fx="0.1" fy="0.7" gradientTransform="rotate(0 0 0)">

<stop offset="0.3" stop-color="rgba(249, 169, 19, 0.7)">
</stop>
<stop offset="1.5" stop-color="rgba(242, 6, 2, 0.5)">
<animate attributeName="offset" dur="12s" values="0.7;1.9;0.7"
  repeatCount="indefinite" />
</stop>
  </radialGradient>
  <linearGradient id="bird" fy="0.7" gradientTransform="rotate(90 0.9 .5)">

<stop offset="0.05" stop-color="rgb(242, 238, 12)">
</stop>
<stop offset="1.5" stop-color="rgb(249, 46, 7)">
<animate attributeName="offset" dur="12s" values="0.7;1.9;0.7"

  repeatCount="indefinite" />
</stop>
  </linearGradient>

  <linearGradient id="key">
      <stop offset="0" stop-color="rgba(184,184,49,1)"></stop>
      <stop offset="0.21" stop-color="rgba(213,217,103,1)"></stop>
      <stop offset="0.32" stop-color="rgba(232,238,137,1)"></stop>
      <stop offset="0.38" stop-color="rgba(194,195,27,1)"></stop>
      <stop offset="0.8" stop-color="rgba(184,184,49,1)"></stop>
      <stop offset="0.86" stop-color="rgba(213,217,103,1)"></stop>
      <stop offset="0.92" stop-color="rgba(232,238,137,1)"></stop>
      <stop offset="1" stop-color="rgba(194,195,27,1)"></stop>

  </linearGradient>
  <linearGradient id="lotusPetal">


      <stop offset="0" stop-color="rgba(250,250,250,1)"></stop>
      <stop offset="0.22" stop-color="rgba(217,28,154,0.94)"></stop>
      <stop offset="0.97" stop-color="rgba(250,250,250,0.75)"></stop>
      <stop offset="1" stop-color="rgba(224,33,176,0.74)"></stop>
</linearGradient>
<linearGradient id="blackSpace">
  <stop offset="0" stop-color="#000"></stop>
  <stop offset="0.5" stop-color="#3B3B3B"></stop>
  <stop offset="1" stop-color="#000"></stop>
</linearGradient>
</defs>

    <path class="sun" fill-rule="evenodd" clip-rule="evenodd" fill="url(#sun)" d="M275.978,27.58c28.307-1.348,55.691,2.992,77.52,10.32
      c43.911,14.742,77.862,39.637,103.921,71.76c12.888,15.888,23.809,33.729,32.399,55.2c8.188,20.465,13.899,44.598,15.36,72.48
      c1.491,28.467-3.094,54.563-10.561,76.801c-12.871,38.337-32.956,68.28-60.239,93.359c-1.64,1.508-3.58,3.378-5.761,5.28
      c-2.142,1.868-4.688,4.8-6.96,4.8c-79.324-0.002-157.221,0.001-236.4,0c-11.186,0-22.344,0.901-33.12,0
      c-4.614-0.386-6.77-3.769-9.84-6.479c-27.902-24.637-50.389-55.688-63.6-95.04c-3.594-10.705-6.627-21.977-8.64-33.841
      c-4.137-24.386-3.703-54.711,1.2-78.24c12.114-58.128,41.318-99.525,80.88-130.8c15.904-12.572,33.653-22.751,54-30.72
      C226.606,34.444,249.61,28.835,275.978,27.58z"/>

    <path class="bird" fill="url(#bird)" stroke="rgba(249, 46, 7, 0.3)" d="M442.16 253.16c-8.914-.43-17.65-1.645-18.72-9.36-.744-5.383 1.738-9.284 3.84-12.72 4.937-8.075 13.082-16.386 21.6-19.2-2.174-2.615-5.613-3.387-10.56-3.84-3.64-.333-10.632.417-12.48-1.92-2.437-3.086.99-9.63 2.16-12.96 4.83-13.722 2.644-33.34-.72-46.8.015 7.746-2.137 13.483-5.04 17.76-.98 1.44-1.98 2.893-3.12 3.84.125-14.916-3.332-24.825-9.12-34.32-2.67-4.383-5.4-9.353-6.478-15.36-1.082-6.032-.785-12.848.238-20.16-5.02 2.177-8.73 7.75-11.278 13.2-9.96-11.282-18.99-24.887-27.36-37.44-1.192-1.79-2.278-3.666-3.84-5.04.952 1.94 1.663 3.632 2.4 6.48.395 1.53 1.826 6.045-.96 6.72-2.134.516-5.664-2.243-7.2-3.36-6.42-4.664-11.352-10.87-16.32-15.84-6.786-6.786-12.943-13.924-19.68-20.16-.337-.312-1.062-1.8-1.2-.72 4.783 9.572 8.587 19.013 11.76 29.76 1.06 3.59 2.4 7.36 2.4 11.52 0 5.75-2.178 10.44-4.562 14.88-2.358 4.398-4.82 8.198-7.438 12.24-5.27 8.136-10.81 16.123-11.52 27.6-.465 7.447 1.13 13.79 3.84 18.48 5.65 9.79 14.992 14.837 22.32 23.28 3.397 3.92 7.51 8.807 8.64 14.4 2.566 12.71-6.453 23.465-12.72 28.8-7.04 5.993-15.644 10.495-27.603 10.08-5.05-3.756-7.438-8.987-6.722-16.32.42-4.31 1.73-8.45 1.2-12.72-.108-.864-.415-2.107-.72-2.88-.783-1.976-3.368-3.78-4.08-5.52-.123-.297-.23-.66-.328-1.055h-6.514c-2.1.466-4.24.158-6.12.576-2.635.586-5.505 2.387-7.2 4.08-2.672 2.674-4.395 6.538-4.32 12-3.48 2.816-3.023 10.16.48 12.72-.026-3.78 2.275-6.03 4.56-7.2 1.173-.6 2.52-.59 3.84-1.2 3.544-1.637 6.01-6.044 9.36-5.52.525 3.273-1.672 5.618-3.36 7.68-3.634 4.446-7.515 7.62-12.48 11.04-2.12 1.463-5.33 4.008-7.44 4.32-3.035.45-7.51-1.18-10.8-2.4-9.584-3.552-17.34-10.15-21.84-18-2.157-3.767-4.424-8.945-4.32-14.4.13-6.64 3.79-11.986 7.44-16.56 3.698-4.63 8.02-8.502 12-12 8.51-7.47 16.864-15.22 15.84-31.68-.7-11.304-6.482-19.824-11.52-27.6-5.044-7.79-12-16.18-12-27.12 0-3.9 1.115-7.967 2.16-11.52 3.11-10.55 7.777-20.917 12-29.76-.312-.757-1.092.382-1.2.48-.415.382-.813 1.048-1.2 1.44-6.35 6.48-12.06 12.54-18.48 18.96-5.043 5.045-10.14 11.252-16.32 15.84-1.467 1.09-5.246 4.054-7.44 3.36-2.392-.758-1.2-5.147-.72-6.96.718-2.707 1.97-4.73 2.16-6.48-9.492 13.343-18.393 28.422-28.8 40.56-.605.71-1.23 1.93-2.4 1.92-1.982-4.63-5.397-9.743-9.36-12.24-.263-.167-1.265-1.203-1.68-.48 1.064 7.208 1.31 13.958.24 19.92-1.076 6.01-3.812 10.985-6.48 15.36-5.816 9.547-9.27 19.513-9.12 34.56-1.91-2.826-4.52-5.413-6-8.88-1.61-3.78-1.46-8.17-2.4-12.96-1.572 10.373-4.13 20.937-3.36 33.36.27 4.304 1.428 9.47 2.88 13.68 1.07 3.095 4.827 9.994 2.16 12.96-1.88 2.093-9.013 1.342-12.48 1.68-4.935.48-8.35 1.22-10.56 3.84 5.43 1.667 11.086 6.078 15.84 11.28 4.46 4.88 9.01 10.876 9.6 17.76.906 10.525-9.287 11.77-18.96 12.24 2.63 2.377 5.823 4.486 9.12 6.96 6.283 4.71 12.54 9.45 18 15.12 2.567 2.662 5.9 6.168 6.48 10.32.685 4.87-2.716 5.627-6 7.68-5.13 3.21-9.33 6.664-10.32 13.68 5.3-1.47 10.074-3.06 16.8-2.64 17.18 1.065 26.904 12.043 37.68 20.88 11.518 9.44 22.89 16.44 36.38 22.274-.48-2.746-.745-5.563-.745-8.445 0-19.87 11.935-36.96 29.074-44.648.352-.762 1.065-1.343 2.16-1.343.292 0 .548.052.787.126C273.3 291.11 279.15 290 285.27 290c27.283 0 49.4 21.934 49.4 48.99 0 2.807-.26 5.55-.72 8.227.16-.015.323-.014.485.005 13.527-5.695 24.947-12.765 36.44-22.062 10.98-8.883 20.155-19.91 37.68-20.88 6.633-.367 11.313 1.172 16.56 2.64-.095-4.384-2.482-6.477-4.32-9.12-1.996-1.498-3.71-3.002-6.238-4.56-3.075-1.896-6.42-2.894-5.76-7.92.468-3.563 3.793-7.29 6.48-10.08 2.932-3.045 5.6-5.44 8.64-7.92 5.897-4.812 12.33-8.86 17.76-13.44-.08.072 1.344-.336.483-.72z"/>

    <path class="eye" fill="#0F0" stroke="rgb(201, 16, 16)" d="M274.88 206.12c3.16.278 4.677-1.084 4.8-3.84-3.134-.255-4.43 1.328-4.8 3.84z"/>
    <path class="plume" fill="rgb(201, 16, 16)" stroke="#f00" d="M292.16 191.48c-2.21-9.92-4.278-19.83-6.48-29.04-2.575-10.782-4.538-21.596-15.118-25.68-1.176 3.796-.725 8.16.96 10.56 2.238 3.19 9.128 3.733 9.12 8.88-2.508-1.27-5.25-3.343-7.68-4.8-.846-.506-2.157-1.574-2.4-.96 1.336 5.284 2.778 9.376 6 12.24 2.876 2.557 5.813 5.095 7.2 8.4-2.255-.485-3.46-3.234-5.28-3.36-2.854 8.99 8.374 9.99 10.8 15.84 1.165 2.813.667 7.49-1.2 10.32-.592.3-1.193.49-1.8.625h6.513c-.236-.943-.423-2.076-.635-3.025z"/>
    <path class="shen" d="M450.654 417.4h72.48V433c-158.085-.16-316.794.32-474.483-.24.157-5.043-.313-10.715.24-15.358h72.24c.79.176.368-.48 0-.48-29.917-29.49-52.86-65.155-65.04-111.84-6.21-23.812-8.81-53.614-6.24-80.4 5.12-53.33 24.397-93.488 50.64-126.24 26.425-32.974 59.398-58.16 102.48-74.4C221.58 17.03 242 11.72 266.09 9.882c10.518-.8 21.518-1.1 33.36-.478 20.944 1.098 41.192 5.11 57.84 10.56 23.575 7.72 43.548 17.234 61.44 29.52 36.814 25.275 64.15 57.522 83.28 98.64 9.51 20.442 16.835 44.37 19.68 71.28 2.95 27.926.964 57.55-5.04 82.562-11.625 48.456-36.285 85.848-65.996 115.434zm43.68-103.2c7.127-22.162 11.873-49.023 10.56-76.8-1.3-27.536-6.917-51.138-15.356-72.24-16.477-41.174-42.926-73.03-77.28-97.68-16.774-12.04-36.188-21.93-58.08-29.28-24.333-8.17-56.188-12.97-87.602-10.08-9.74.895-18.747 2.37-27.6 4.32-34.495 7.596-62.862 21.7-86.88 40.56-31.94 25.08-56.926 57.163-71.76 98.16-7.647 21.126-13.2 44.67-13.2 71.76 0 13.53.763 27.225 2.88 39.6 2.086 12.2 5.115 23.19 8.64 33.842 13.033 39.38 35.84 70.875 64.08 95.278 1.95 1.687 3.726 3.924 5.76 5.04 1.134.622 1.4.616 3.12.722 11.07.666 22.59 0 33.84 0h237.36c31.498-26.332 57.452-59.462 71.518-103.202z"/>
    <g>


      <path id="lotusMid1" class="lotus" fill="url(#lotusPetal)" d="M426.916 347.12c-1.502 3.538-4.112 5.966-6.72 8.398-3.814-2.725-8.7-6.843-15.12-7.438-4.632-.434-8.893.658-12.24 2.64.23-1.692 1.982-3.936 2.643-6 8.98-4.827 24.612-3.404 31.436 2.4z"/>
      <path id="lotusMid" class="lotus" fill="url(#lotusPetal)" d="M424.756 365.12c-4.724 6.084-10.685 14.283-21.12 14.64-11.66.4-14.327-8.5-22.8-12v-5.04c8.785-3.452 10.807-13.23 24-12 9.31.868 15.142 8.38 19.92 14.4z"/>
      <path id="lotusMid2" class="lotus" fill="url(#lotusPetal)" d="M426.916 382.88c-6.082 6.463-22.98 7.5-31.682 2.642-.647-2.07-1.473-3.97-2.64-5.52 1.585.116 3.02 1.22 4.8 1.68 9.026 2.325 17.805-2.055 22.32-6.72 2.954 1.502 5.35 4.997 7.202 7.918z"/>
      <path id="lotus2" class="lotus" fill="url(#lotusPetal)" d="M422.836 327.92c-1.946 4.612-4.638 8.482-8.16 11.52-6.598-.743-13.563-.03-18 2.158-.025-4.51 1.177-9.86 2.16-14.157 7.24-5.048 15.54 1.277 24 .48z"/>
      <path id="lotus6" class="lotus" fill="url(#lotusPetal)" d="M396.195 389.12c-.045-.204.095-.23.24-.24 4.664 1.788 11.77 3.246 18 1.92 3.662 2.98 6.313 6.967 8.398 11.52-7.975-.747-15.898 5.655-24 .72-1.27-4.244-1.488-9.547-2.638-13.92z"/>
      <path id="lotus1" class="lotus" fill="url(#lotusPetal)" d="M399.558 319.28c-1.938 3.23-3.263 6.797-4.08 10.8-.86 4.206-.905 8.685-2.16 12.72-2.36 7.585-7.167 12.954-12.96 16.8-6.938-7.88-7.5-24.66-.72-31.92 4.594-4.922 11.3-8.002 19.92-8.4z"/>

      <path id="lotus7" class="lotus" fill="url(#lotusPetal)" d="M380.355 370.88c5.68 3.104 10.857 10.082 12.96 17.04 2.307 7.634 1.635 16.852 6.24 23.28-12.454-.816-23.75-7.304-24.72-20.642-.5-6.877 1.52-15.62 5.52-19.678z"/>
    </g>
    <path class="leftwing" fill="url(#leftwing)" stroke="rgba(242, 6, 2, 0.5)" d="M205.068 223.127c-.383-10.21 1.935-18.648 5.04-26.16 6.39-15.458 15.77-25.127 27.6-35.28 6.1-5.234 11.16-10.75 11.76-19.68.93-13.864-6.31-21.695-12-30.48-6.358-9.822-13.24-20.402-10.8-35.52-.014-.146-.036-.284-.24-.24-6.242 6.012-13.16 15.302-24.96 13.68-6.552 8.802-15.313 19.52-22.56 28.8-1.33 1.702-1.998 3.36-4.08 3.36-2.06 0-2.773-1.42-3.6-2.4-.022-.024-.53-1.356-.72-.48-1.166 5.98-1.903 11.198-4.8 15.84-2.8 4.48-5.172 8.607-6.96 13.68-3.747 10.622-3.36 27.622-2.88 42.48-3.606-3.637-7.08-8.852-10.32-12.72-.345-.41-1.443-1.807-1.44-.96 1.113 9.463 7.735 18.53 6.48 29.76-.67 5.986-4.58 9.372-9.6 11.52 6.816 4.63 14.285 14.99 13.198 26.64-.565 6.075-3.852 11.1-7.92 13.68 4.05 2.906 9.52 6.674 13.92 11.52 4.045 4.454 8.6 10.564 8.4 17.04-.123 3.95-2.353 6.016-4.56 7.684-.207.153-1.46.536-.72.96 15.078 2.86 25.72 10.938 36 18.722 10.32 7.81 19.573 16.987 32.64 22.08 1.465-23.336 13.298-36.306 29.76-44.642-13.36-8.385-24.747-16.35-35.52-27.12-10.54-10.546-20.4-22.622-21.118-41.763z"/>
    <path class="rightwing" fill="url(#rightwing)" stroke="rgba(242, 6, 2, 0.5)" d="M429.768 217.822c-1.823-.53-3.155-1.012-4.316-1.92-11.238-8.775-1.025-27.544 1.198-39.36-3.826 3.624-7.935 10.31-11.76 13.68.145-4.775.282-9.653.292-14.43.02-10.503-.595-20.506-3.174-27.81-1.78-5.042-4.165-9.203-6.96-13.68-2.873-4.6-3.896-9.91-4.562-16.08-.396-.382-.836.337-.96.48-1.15 1.324-1.378 2.773-3.84 2.64-1.85-.1-2.518-1.665-3.842-3.36-6.657-8.527-13.276-16.67-19.438-24.72-1.082-1.414-1.958-3.118-3.36-4.08-11.652 1.924-19.018-8.63-24.96-13.68 2.185 13.127-2.642 22.73-8.02 31.344-.522.84-1.05 1.673-1.58 2.497-5.293 8.243-12.44 16.304-13.198 27.6-.054.784-.08 1.54-.086 2.273-.073 10.988 5.093 16.408 11.847 22.206 5.668 4.867 11.638 10.397 15.84 15.6 8.23 10.19 16.49 24.37 16.84 42.42.02 1.202.01 2.424-.04 3.66-.77 19.35-10.77 31.17-21.12 41.522-10.728 10.73-22.96 19.114-35.52 27.358 4.706 2.246 8.997 4.906 12.77 8.088 6.534 5.514 11.5 12.594 14.374 21.77.26.827.507 1.664.73 2.525l.02.076c.946 3.656 1.58 7.628 1.868 11.94 13.076-5.09 22.315-14.267 32.64-22.08 10.34-7.822 21.23-16.084 36.24-18.72-1.514-1.418-3.855-2.877-4.8-5.28-.572-1.45-.804-2.906-.772-4.347.132-6.23 5.168-12.138 8.69-16.056 4.398-4.89 9.736-8.688 13.68-11.758-4.5-2.71-7.35-7.31-7.92-13.44-.072-.798-.11-1.58-.118-2.347-.1-11.483 7.16-19.34 13.316-24.53z"/>


    <path class="lil-leftwing" fill="url(#leftwing)" stroke="rgba(242, 6, 2, 0.5)" d="M205.068 223.127c-.383-10.21 1.935-18.648 5.04-26.16 6.39-15.458 15.77-25.127 27.6-35.28 6.1-5.234 11.16-10.75 11.76-19.68.93-13.864-6.31-21.695-12-30.48-6.358-9.822-13.24-20.402-10.8-35.52-.014-.146-.036-.284-.24-.24-6.242 6.012-13.16 15.302-24.96 13.68-6.552 8.802-15.313 19.52-22.56 28.8-1.33 1.702-1.998 3.36-4.08 3.36-2.06 0-2.773-1.42-3.6-2.4-.022-.024-.53-1.356-.72-.48-1.166 5.98-1.903 11.198-4.8 15.84-2.8 4.48-5.172 8.607-6.96 13.68-3.747 10.622-3.36 27.622-2.88 42.48-3.606-3.637-7.08-8.852-10.32-12.72-.345-.41-1.443-1.807-1.44-.96 1.113 9.463 7.735 18.53 6.48 29.76-.67 5.986-4.58 9.372-9.6 11.52 6.816 4.63 14.285 14.99 13.198 26.64-.565 6.075-3.852 11.1-7.92 13.68 4.05 2.906 9.52 6.674 13.92 11.52 4.045 4.454 8.6 10.564 8.4 17.04-.123 3.95-2.353 6.016-4.56 7.684-.207.153-1.46.536-.72.96 15.078 2.86 25.72 10.938 36 18.722 10.32 7.81 19.573 16.987 32.64 22.08 1.465-23.336 13.298-36.306 29.76-44.642-13.36-8.385-24.747-16.35-35.52-27.12-10.54-10.546-20.4-22.622-21.118-41.763z"/>
    <path class="lil-rightwing" fill="url(#rightwing)" stroke="rgba(242, 6, 2, 0.5)" d="M429.768 217.822c-1.823-.53-3.155-1.012-4.316-1.92-11.238-8.775-1.025-27.544 1.198-39.36-3.826 3.624-7.935 10.31-11.76 13.68.145-4.775.282-9.653.292-14.43.02-10.503-.595-20.506-3.174-27.81-1.78-5.042-4.165-9.203-6.96-13.68-2.873-4.6-3.896-9.91-4.562-16.08-.396-.382-.836.337-.96.48-1.15 1.324-1.378 2.773-3.84 2.64-1.85-.1-2.518-1.665-3.842-3.36-6.657-8.527-13.276-16.67-19.438-24.72-1.082-1.414-1.958-3.118-3.36-4.08-11.652 1.924-19.018-8.63-24.96-13.68 2.185 13.127-2.642 22.73-8.02 31.344-.522.84-1.05 1.673-1.58 2.497-5.293 8.243-12.44 16.304-13.198 27.6-.054.784-.08 1.54-.086 2.273-.073 10.988 5.093 16.408 11.847 22.206 5.668 4.867 11.638 10.397 15.84 15.6 8.23 10.19 16.49 24.37 16.84 42.42.02 1.202.01 2.424-.04 3.66-.77 19.35-10.77 31.17-21.12 41.522-10.728 10.73-22.96 19.114-35.52 27.358 4.706 2.246 8.997 4.906 12.77 8.088 6.534 5.514 11.5 12.594 14.374 21.77.26.827.507 1.664.73 2.525l.02.076c.946 3.656 1.58 7.628 1.868 11.94 13.076-5.09 22.315-14.267 32.64-22.08 10.34-7.822 21.23-16.084 36.24-18.72-1.514-1.418-3.855-2.877-4.8-5.28-.572-1.45-.804-2.906-.772-4.347.132-6.23 5.168-12.138 8.69-16.056 4.398-4.89 9.736-8.688 13.68-11.758-4.5-2.71-7.35-7.31-7.92-13.44-.072-.798-.11-1.58-.118-2.347-.1-11.483 7.16-19.34 13.316-24.53z"/>


    <path class="key" fill="url(#key)" stroke="#fff" d="M239.97 358.48c-.065.005-.124.02-.192.02.022.087.046.175.063.26h-82.08v30h8.4c.16-3.92-.317-8.478.24-12h7.2v12h9.84c.16-3.92-.317-8.478.24-12 2.323.16 5.28-.315 7.2.24v11.76h8.4V369.8h47.446c.02-.047.04-.093.063-.14-2.75-3.387-5.048-7.14-6.82-11.18zm137.39 2.2c-.287-1.174-1.658-2.428-2.4-3.84-2.228-4.245-3.253-9.058-3.6-15.12-3.216 2.045-5.634 7.41-5.04 12.722.175 1.557 1.103 2.91.96 4.318h-35.407c-.47.168-.965.13-1.418-.05-1.705 3.836-3.862 7.43-6.454 10.673.23.104.42.25.59.412 2.598-.794 7.398.006 10.773.006 11.052 0 22.394-.19 32.16.24-2.644 6.03-.523 14.4 3.84 17.04.437-5.715 1.14-10.43 3.12-14.64.823-1.75 2.51-2.924 2.88-4.56.37-1.65.334-5.827 0-7.2h-.004z"/>

    <path class="ouro" fill="rgb(2, 43, 23)" stroke="rgb(2, 43, 23)" d="M334.96 338.72c0-27.055-22.116-48.987-49.4-48.987-27.282 0-49.398 21.935-49.398 48.988 0 2.884.267 5.703.748 8.45.033.014.065.03.1.043.06.71.18 1.402.32 2.087.1.442.198.886.31 1.324.616 2.307 1.504 4.446 2.094 6.38 2.092 5.152 5.04 9.87 8.673 13.98 3.68 3.965 7.673 7.354 12.262 10.042.17.1.344.196.52.297.437.25.882.492 1.332.73.287.15.58.295.87.44.416.207.834.413 1.26.608.224.105.45.202.676.305 4.124 1.825 8.71 3.148 13.924 3.886 1.882.266 3.838.206 5.938.407.125 0 .248.01.373.01 27.28 0 49.4-21.933 49.4-48.987h-.003zm-63.393 42.093c-7.784-2.88-14.943-8.74-19.92-15.36-5.273-7.017-8.186-16.71-7.44-27.84.73-10.89 5.268-19.632 11.52-25.92 6.18-6.21 14.976-11.23 25.44-12 12.515-.92 22.875 3.764 30 10.08 7.646 6.777 12.653 15.23 12.72 27.84.057 10.273-2.67 17.843-7.438 23.76-1.545 1.918-3.41 4.418-5.28 5.28-2.015.93-5.356 1.345-7.68 1.92-2.603.647-5.05 1.103-7.2 2.16-5.147 2.532-7.143 6.603-10.803 12-4.814.565-9.936-.447-13.92-1.92z"/>
    <path class="orb" fill="rgb(1, 2, 56)" d="M282.35 377.517c-9.752-1.056-17.317-5.598-22.562-11.278-5.613-6.083-9.36-14.237-9.36-24.48 0-20.038 13.99-34.435 32.88-35.76 14.27-1 27.314 8.63 31.92 17.52 3.438 6.64 4.563 18.835 1.198 27.6-1.38 3.598-4.368 9.147-7.92 10.803-2.127.99-4.646 1.162-6.72 1.68-5.352 1.33-10.003 3.124-13.44 6.48-2.073 2.02-3.443 4.638-6 7.437l.004-.003z"/>

<style>

  body {
      background-color: #fff;
  }

  svg {
      position: absolute;
      left: 0;
      right: 0;
      top: 0;
      bottom: 0;
      margin: auto;
  }

  .shen {
      stroke: #000;
      fill: #000;
      stroke-dashoffset: -500;
      stroke-dasharray: 3;
      -webkit-animation: heat 20s infinite linear;
              animation: heat 20s infinite linear;
  }

  .bird {
      -webkit-transform-origin: 50% 50%;
              transform-origin: 50% 50%;
      -webkit-animation: breathe 6s infinite linear;
              animation: breathe 6s infinite linear;
  }

  .leftwing {
      -webkit-transform-origin: 50% 100%;
              transform-origin: 50% 100%;
      -webkit-animation: swayL 6s infinite linear;
              animation: swayL 6s infinite linear;
  }

  .lil-leftwing {
      -webkit-transform-origin: 50% 100%;
              transform-origin: 50% 100%;
      -webkit-transform: rotateZ(-10deg);
              transform: rotateZ(-10deg);
      -webkit-animation: lilSwayL 6s infinite linear;
              animation: lilSwayL 6s infinite linear;
      -webkit-animation: breathe 6s infinite linear;
              animation: breathe 6s infinite linear;
  }

  .rightwing {
      -webkit-transform-origin: 50% 100%;
              transform-origin: 50% 100%;
      -webkit-animation: swayR 6s infinite linear;
              animation: swayR 6s infinite linear;
  }

  .lil-rightwing {
      -webkit-transform-origin: 50% 100%;
              transform-origin: 50% 100%;
      -webkit-transform: rotateZ(10deg);
              transform: rotateZ(10deg);
      -webkit-animation: lilSwayR 6s infinite linear;
              animation: lilSwayR 6s infinite linear;
      -webkit-animation: breathe 6s infinite linear;
              animation: breathe 6s infinite linear;
  }

  .orb, .ouro {
      -webkit-transform-origin: 50% 50%;
              transform-origin: 50% 50%;
      -webkit-animation: turn 360s infinite linear;
              animation: turn 360s infinite linear;
  }

  .eye {
      -webkit-transform-origin: 50% 50%;
              transform-origin: 50% 50%;
      -webkit-animation-name: blink;
              animation-name: blink;
      -webkit-animation-duration: 6s;
              animation-duration: 6s;
      -webkit-animation-delay: 5s;
              animation-delay: 5s;
      -webkit-animation-iteration-count: infinite;
              animation-iteration-count: infinite;
  }

  #lotus1 {
      -webkit-transform-origin: 50% 100%;
              transform-origin: 50% 100%;
      -webkit-animation: outerBloom 12s infinite linear;
              animation: outerBloom 12s infinite linear;
  }
  #lotus2 {
      -webkit-transform-origin: 50% 100%;
              transform-origin: 50% 100%;
      -webkit-animation: innerBloomUpper 12s infinite linear;
              animation: innerBloomUpper 12s infinite linear;
  }
  #lotus6 {
      -webkit-transform-origin: 50% 0%;
              transform-origin: 50% 0%;
      -webkit-animation: innerBloomLower 12s infinite linear;
              animation: innerBloomLower 12s infinite linear;
  }
  #lotus7 {
      -webkit-transform-origin: 50% 0%;
              transform-origin: 50% 0%;
      -webkit-animation: outerBloom2 12s infinite linear;
              animation: outerBloom2 12s infinite linear;
  }

  #lotusMid, #lotusMid1, #lotusMid2 {
      -webkit-transform-origin: 0% 50%;
              transform-origin: 0% 50%;
      -webkit-animation: midBloom 12s infinite linear;
              animation: midBloom 12s infinite linear;
      -webkit-animation-delay: 6s;
              animation-delay: 6s;
  }
  @-webkit-keyframes blink {
      0% {}
      1% {
          fill: rgb(201, 16, 16);
      }
      3% {
          stroke: rgb(249, 46, 7);
      }
      5% {
          fill: #0F0;
          stroke: rgb(201, 16, 16);
  }
  }
  @keyframes blink {
      0% {}
      1% {
          fill: rgb(201, 16, 16);
      }
      3% {
          stroke: rgb(249, 46, 7);
      }
      5% {
          fill: #0F0;
          stroke: rgb(201, 16, 16);
  }
  }

  @-webkit-keyframes breathe {
      0% {
          -webkit-transform: scale(1);
                  transform: scale(1);
      }
      40% {
          -webkit-transform: scale(1.1);
                  transform: scale(1.1);
      }
      100% {
          -webkit-transform: scale(1);
                  transform: scale(1);
      }
  }

  @keyframes breathe {
      0% {
          -webkit-transform: scale(1);
                  transform: scale(1);
      }
      40% {
          -webkit-transform: scale(1.1);
                  transform: scale(1.1);
      }
      100% {
          -webkit-transform: scale(1);
                  transform: scale(1);
      }
  }

  @-webkit-keyframes swayL {
      0% {
          -webkit-transform: rotateZ(0deg);
                  transform: rotateZ(0deg);
      }
      40% {
          -webkit-transform: rotateZ(-11deg);
                  transform: rotateZ(-11deg);
      }
      100% {
          -webkit-transform: rotateZ(0deg);
                  transform: rotateZ(0deg);
      }
  }

  @keyframes swayL {
      0% {
          -webkit-transform: rotateZ(0deg);
                  transform: rotateZ(0deg);
      }
      40% {
          -webkit-transform: rotateZ(-11deg);
                  transform: rotateZ(-11deg);
      }
      100% {
          -webkit-transform: rotateZ(0deg);
                  transform: rotateZ(0deg);
      }
  }

  @-webkit-keyframes lilSwayL {
      0% {
          -webkit-transform: rotateZ(2deg);
                  transform: rotateZ(2deg);
      }
      40% {
          -webkit-transform: rotateZ(-9deg);
                  transform: rotateZ(-9deg);
      }
      100% {
          -webkit-transform: rotateZ(2deg);
                  transform: rotateZ(2deg);
      }
  }

  @keyframes lilSwayL {
      0% {
          -webkit-transform: rotateZ(2deg);
                  transform: rotateZ(2deg);
      }
      40% {
          -webkit-transform: rotateZ(-9deg);
                  transform: rotateZ(-9deg);
      }
      100% {
          -webkit-transform: rotateZ(2deg);
                  transform: rotateZ(2deg);
      }
  }

  @-webkit-keyframes swayR {
      0% {
          -webkit-transform: rotateZ(0deg);
                  transform: rotateZ(0deg);
      }
      40% {
          -webkit-transform: rotateZ(11deg);
                  transform: rotateZ(11deg);
      }
      100% {
          -webkit-transform: rotateZ(0deg);
                  transform: rotateZ(0deg);
      }
  }

  @keyframes swayR {
      0% {
          -webkit-transform: rotateZ(0deg);
                  transform: rotateZ(0deg);
      }
      40% {
          -webkit-transform: rotateZ(11deg);
                  transform: rotateZ(11deg);
      }
      100% {
          -webkit-transform: rotateZ(0deg);
                  transform: rotateZ(0deg);
      }
  }

  @-webkit-keyframes lilSwayR {
      0% {
          -webkit-transform: rotateZ(-2deg);
                  transform: rotateZ(-2deg);
      }
      40% {
          -webkit-transform: rotateZ(9deg);
                  transform: rotateZ(9deg);
      }
      100% {
          -webkit-transform: rotateZ(-2deg);
                  transform: rotateZ(-2deg);
      }
  }

  @keyframes lilSwayR {
      0% {
          -webkit-transform: rotateZ(-2deg);
                  transform: rotateZ(-2deg);
      }
      40% {
          -webkit-transform: rotateZ(9deg);
                  transform: rotateZ(9deg);
      }
      100% {
          -webkit-transform: rotateZ(-2deg);
                  transform: rotateZ(-2deg);
      }
  }

  @-webkit-keyframes turn {
      from {
          -webkit-transform: rotateZ(0);
                  transform: rotateZ(0);
      }
      to {
          -webkit-transform: rotateZ(360deg);
                  transform: rotateZ(360deg);
      }
  }

  @keyframes turn {
      from {
          -webkit-transform: rotateZ(0);
                  transform: rotateZ(0);
      }
      to {
          -webkit-transform: rotateZ(360deg);
                  transform: rotateZ(360deg);
      }
  }

  @-webkit-keyframes heat {
      from {
          stroke-dashoffset: -2000;
      }
      to {
          stroke-dashoffset: 0;
      }
  }

  @keyframes heat {
      from {
          stroke-dashoffset: -2000;
      }
      to {
          stroke-dashoffset: 0;
      }
  }
  @-webkit-keyframes shimmer {
      from {
          stroke-dashoffset: -2000;
      }
      to {
          stroke-dashoffset: 0;
      }
  }
  @keyframes shimmer {
      from {
          stroke-dashoffset: -2000;
      }
      to {
          stroke-dashoffset: 0;
      }
  }

  @-webkit-keyframes outerBloom {
      0% {
          -webkit-transform:rotateZ(0);
                  transform:rotateZ(0);
      }
      50% {
          -webkit-transform:rotateZ(45deg);
                  transform:rotateZ(45deg);
      }
      100% {
          -webkit-transform:rotateZ(0);
                  transform:rotateZ(0);
  }
  }

  @keyframes outerBloom {
      0% {
          -webkit-transform:rotateZ(0);
                  transform:rotateZ(0);
      }
      50% {
          -webkit-transform:rotateZ(45deg);
                  transform:rotateZ(45deg);
      }
      100% {
          -webkit-transform:rotateZ(0);
                  transform:rotateZ(0);
  }
  }
  @-webkit-keyframes outerBloom2 {
      0% {
          -webkit-transform:rotateZ(0);
                  transform:rotateZ(0);
      }
      50% {
          -webkit-transform:rotateZ(-45deg);
                  transform:rotateZ(-45deg);
      }
      100% {
          -webkit-transform:rotateZ(0);
                  transform:rotateZ(0);
  }
  }
  @keyframes outerBloom2 {
      0% {
          -webkit-transform:rotateZ(0);
                  transform:rotateZ(0);
      }
      50% {
          -webkit-transform:rotateZ(-45deg);
                  transform:rotateZ(-45deg);
      }
      100% {
          -webkit-transform:rotateZ(0);
                  transform:rotateZ(0);
  }
  }
  @-webkit-keyframes innerBloomLower {
      0% {
          -webkit-transform:translateY(0);
                  transform:translateY(0);
      }
      50% {
          -webkit-transform:translateY(-50%);
                  transform:translateY(-50%);
      }
      100% {
          -webkit-transform:translateY(0);
                  transform:translateY(0);
  }
  }
  @keyframes innerBloomLower {
      0% {
          -webkit-transform:translateY(0);
                  transform:translateY(0);
      }
      50% {
          -webkit-transform:translateY(-50%);
                  transform:translateY(-50%);
      }
      100% {
          -webkit-transform:translateY(0);
                  transform:translateY(0);
  }
  }
  @keyframes innerBloomLower {
      0% {
          -webkit-transform:translateY(0);
                  transform:translateY(0);
      }
      50% {
          -webkit-transform:translateY(-50%);
                  transform:translateY(-50%);
      }
      100% {
          -webkit-transform:translateY(0);
                  transform:translateY(0);
  }
  }
  @-webkit-keyframes innerBloomUpper {
      0% {
          -webkit-transform:translateY(0);
                  transform:translateY(0);
      }
      50% {
          -webkit-transform:translateY(50%);
                  transform:translateY(50%);
      }
      100% {
          -webkit-transform:translateY(0);
                  transform:translateY(0);
  }
  }
  @keyframes innerBloomUpper {
      0% {
          -webkit-transform:translateY(0);
                  transform:translateY(0);
      }
      50% {
          -webkit-transform:translateY(50%);
                  transform:translateY(50%);
      }
      100% {
          -webkit-transform:translateY(0);
                  transform:translateY(0);
  }
  }
  @-webkit-keyframes midBloom {
      0% {
          -webkit-transform:rotateY(0deg);
                  transform:rotateY(0deg);
  }   50% {
          -webkit-transform:rotateY(-45deg);
                  transform:rotateY(-45deg);
  }   100% {
          -webkit-transform:rotateY(0deg);
                  transform:rotateY(0deg);
  }
  }
  @keyframes midBloom {
      0% {
          -webkit-transform:rotateY(0deg);
                  transform:rotateY(0deg);
  }   50% {
          -webkit-transform:rotateY(-45deg);
                  transform:rotateY(-45deg);
  }   100% {
          -webkit-transform:rotateY(0deg);
                  transform:rotateY(0deg);
  }
  }
<!--FIREFOX isn't cooperating with following disabled animations-->
  @-moz-document url-prefix() {
      .orb, .ouro, #lotus1, #lotus2, #lotus6, #lotus7, #lotusMid, #lotusMid1, #lotusMid2 {

      animation-play-state: paused;
  }
  }

</style>

  </svg>
